<mxfile host="app.diagrams.net" modified="2023-09-24T19:09:39.407Z" agent="Mozilla/5.0 (Windows NT 10.0; Win64; x64) AppleWebKit/537.36 (KHTML, like Gecko) Chrome/116.0.0.0 Safari/537.36" version="21.8.2" etag="HgroiqTIZIPcksA2XDVj" type="github">
  <diagram name="Page-1" id="wvTRXmR4x1TQXw4od442">
    <mxGraphModel>
      <root>
        <mxCell id="0" />
        <mxCell id="1" parent="0" />
      </root>
    </mxGraphModel>
  </diagram>
</mxfile>
